<?xml version="1.0" encoding="UTF-8"?>
<svg width="570px" height="429px" viewBox="0 0 570 429" version="1.1" xmlns="http://www.w3.org/2000/svg" xmlns:xlink="http://www.w3.org/1999/xlink">
    <!-- Generator: Sketch 54.1 (76490) - https://sketchapp.com -->
    <title>Splash</title>
    <desc>Created with Sketch.</desc>
    <g id="Landing" stroke="none" stroke-width="1" fill="none" fill-rule="evenodd" opacity="0.1">
        <g id="Extra-large:-Desktops---12-col" transform="translate(-165.000000, -3954.000000)" fill="#969CCB">
            <g id="Calculator" transform="translate(0.000000, 3924.000000)">
                <g id="Splash" transform="translate(450.000000, 244.500000) rotate(-360.000000) translate(-450.000000, -244.500000) translate(165.000000, 30.000000)">
                    <path d="M239.649612,8.49051578 C169.105036,-18.4789752 87.2632044,21.4487606 36.5175873,90.8317608 C21.5619532,111.310621 8.93594665,135.500879 3.35634468,162.850141 C-3.39669935,195.97077 0.641321867,231.617452 10.1151409,263.581506 C24.4035237,311.783645 51.6112735,354.036039 87.0331177,377.161788 C122.454962,400.287537 165.998866,403.135819 201.852123,381.126367 C221.80639,368.875877 239.879699,349.185329 261.795455,345.916997 C295.342093,340.91668 323.723285,375.147851 354.083222,394.424104 C374.865801,407.618267 397.724913,414.051356 420.342433,420.288806 C445.985594,427.366356 473.124317,434.236757 497.933414,423.217646 C518.480154,414.085881 535.155686,393.250266 546.211351,368.881631 C557.267016,344.512995 563.168739,316.743684 567.022691,288.899569 C569.438601,271.424352 571.095225,253.511822 569.133736,235.961801 C567.091717,217.629222 561.149729,200.286349 553.40156,184.790544 C535.914972,149.776814 509.414739,123.653177 480.768947,104.940827 C452.123156,86.2284766 421.18225,74.3865282 390.356387,63.0049082 C334.945762,42.4972773 296.803143,18.9342167 239.787664,8.37543367 L239.649612,8.49051578 Z" id="Path"></path>
                    <circle id="Oval" cx="449.5" cy="88.5" r="12.5"></circle>
                    <circle id="Oval" cx="48.5" cy="24.5" r="12.5"></circle>
                    <circle id="Oval" cx="111.5" cy="54.5" r="12.5"></circle>
                    <circle id="Oval" cx="407.5" cy="33.5" r="12.5"></circle>
                    <circle id="Oval" cx="489.5" cy="49.5" r="20.5"></circle>
                    <circle id="Oval" cx="511.5" cy="153.5" r="20.5"></circle>
                    <circle id="Oval" cx="20.5" cy="100.5" r="20.5"></circle>
                </g>
            </g>
        </g>
    </g>
</svg>