<svg xmlns="http://www.w3.org/2000/svg" xmlns:xlink="http://www.w3.org/1999/xlink" width="75.724" height="59.562" viewBox="0 0 75.724 59.562">
  <defs>
    <linearGradient id="linear-gradient" x1="1" x2="0" y2="1" gradientUnits="objectBoundingBox">
      <stop offset="0" stop-color="#0bf2a8"/>
      <stop offset="1" stop-color="#7784d5"/>
    </linearGradient>
    <linearGradient id="linear-gradient-2" x1="0.915" y1="0.5" x2="0.08" y2="0.5" gradientUnits="objectBoundingBox">
      <stop offset="0" stop-color="#56a5c7"/>
      <stop offset="1" stop-color="#8e6cde"/>
    </linearGradient>
    <linearGradient id="linear-gradient-3" x1="1" x2="0" y2="1" gradientUnits="objectBoundingBox">
      <stop offset="0" stop-color="#7899d4"/>
      <stop offset="1" stop-color="#d821fd"/>
    </linearGradient>
  </defs>
  <g id="logo-solana" transform="translate(408.193 -1183.051)">
    <path id="Trazado_6" data-name="Trazado 6" d="M13.988,2.051H73.612c1.018,0,2.723.723,1.849,2.043L63.778,15.951c-.35.306-1.3,1.436-2.319,1.436H1.836c-1.018,0-2.462-.911-1.587-2.486L11.1,3.962C12.324,2.868,12.97,2.051,13.988,2.051Z" transform="translate(-408.171 1181)" fill="url(#linear-gradient)"/>
    <path id="Trazado_7" data-name="Trazado 7" d="M13.988,17.387H73.612c1.018,0,2.723-.723,1.849-2.043L63.778,3.487c-.35-.306-1.3-1.436-2.319-1.436H1.836c-1.018,0-2.462.911-1.587,2.486L11.1,15.475C12.324,16.569,12.97,17.387,13.988,17.387Z" transform="translate(-408.171 1203.113)" fill="url(#linear-gradient-2)"/>
    <path id="Trazado_8" data-name="Trazado 8" d="M13.988,2.051H73.612c1.018,0,2.723.723,1.849,2.043L63.778,15.951c-.35.306-1.3,1.436-2.319,1.436H1.836c-1.018,0-2.462-.911-1.587-2.486L11.1,3.962C12.324,2.868,12.97,2.051,13.988,2.051Z" transform="translate(-408.171 1225.226)" fill="url(#linear-gradient-3)"/>
  </g>
</svg>
