<svg xmlns="http://www.w3.org/2000/svg" viewBox="0 0 369.67 45.31"><defs><style>.cls-1{fill:#2d3889;}</style></defs><g id="Capa_2" data-name="Capa 2"><g id="Capa_1-2" data-name="Capa 1"><path class="cls-1" d="M31.07,28.17a16.88,16.88,0,0,1-1.4,7.1,14.23,14.23,0,0,1-3.86,5.06,16.57,16.57,0,0,1-5.72,3,23.91,23.91,0,0,1-7,1A14.65,14.65,0,0,1,9.86,44a34,34,0,0,1-3.51-1c-1.19-.39-2.33-.8-3.43-1.25S.85,40.9,0,40.5L1.3,28.29a21.07,21.07,0,0,0,5.59,2.3,24.49,24.49,0,0,0,6,.78c.37,0,.83,0,1.36,0a6.36,6.36,0,0,0,1.53-.27,3.33,3.33,0,0,0,1.23-.67,1.58,1.58,0,0,0,.5-1.27,1.4,1.4,0,0,0-.35-1,2.87,2.87,0,0,0-.92-.65A5.66,5.66,0,0,0,15,27.12c-.47-.09-.94-.16-1.39-.2s-.88-.06-1.28-.06h-.94A11.6,11.6,0,0,1,6.75,26,10.42,10.42,0,0,1,3.16,23.5,11.15,11.15,0,0,1,.83,19.73,13.24,13.24,0,0,1,0,15,13.64,13.64,0,0,1,1.41,8.73,14.54,14.54,0,0,1,5.17,4a17,17,0,0,1,5.42-3A19.51,19.51,0,0,1,16.9,0c1,0,2,0,3,.1S22,.3,23,.47a28.13,28.13,0,0,1,3,.69,17.44,17.44,0,0,1,2.76,1l-1.12,12a38.47,38.47,0,0,0-4.23-1.14A20.87,20.87,0,0,0,19,12.63l-1,0c-.4,0-.83,0-1.27.09a10.54,10.54,0,0,0-1.35.22,5.63,5.63,0,0,0-1.22.4,2.5,2.5,0,0,0-.86.66,1.46,1.46,0,0,0-.29,1,1.42,1.42,0,0,0,.49,1.06,3.29,3.29,0,0,0,1.18.62,8.4,8.4,0,0,0,1.6.31c.59.06,1.16.09,1.74.1s1.1,0,1.6,0a8.43,8.43,0,0,1,1.21.05,11.9,11.9,0,0,1,4.27,1,9.52,9.52,0,0,1,5.24,5.67A13.14,13.14,0,0,1,31.07,28.17Z"/><path class="cls-1" d="M69.59,23a21.71,21.71,0,0,1-.62,5.2,20.58,20.58,0,0,1-1.79,4.7,19.64,19.64,0,0,1-2.85,4,17.94,17.94,0,0,1-3.77,3.13,18.15,18.15,0,0,1-4.55,2,19,19,0,0,1-10.3,0,19.07,19.07,0,0,1-4.52-1.91,18,18,0,0,1-3.81-3,18.28,18.28,0,0,1-2.91-3.86,20.06,20.06,0,0,1-1.87-4.55,19.26,19.26,0,0,1-.67-5.07A20.45,20.45,0,0,1,37.18,10,19,19,0,0,1,40.9,6.85a18.23,18.23,0,0,1,4.47-2.08A17.22,17.22,0,0,1,50.44,4a22.09,22.09,0,0,1,7.84,1.34,16.59,16.59,0,0,1,9.93,9.8A21.25,21.25,0,0,1,69.59,23Zm-13.16.77a8.61,8.61,0,0,0-.37-2.48A6.71,6.71,0,0,0,55,19.17a5.46,5.46,0,0,0-1.76-1.51,4.9,4.9,0,0,0-2.42-.58,6,6,0,0,0-2.49.5A5.76,5.76,0,0,0,46.42,19,6.26,6.26,0,0,0,45.22,21a7.24,7.24,0,0,0-.42,2.47A8.93,8.93,0,0,0,45.16,26a7.36,7.36,0,0,0,1.07,2.26A5.71,5.71,0,0,0,48,29.86a4.77,4.77,0,0,0,2.45.62,5.5,5.5,0,0,0,2.5-.55,5.71,5.71,0,0,0,1.89-1.48A6.89,6.89,0,0,0,56,26.3,7.66,7.66,0,0,0,56.43,23.78Z"/><path class="cls-1" d="M97.73,27,96.49,40.21l-25,1.95q.18-10.33.4-20.57T72.47,1H87.89q-.69,6.5-1.31,13T85.69,27q1.4.06,2.76.06h2.76c1.1,0,2.19,0,3.26,0S96.62,27,97.73,27Z"/><path class="cls-1" d="M129.49,28.17a16.72,16.72,0,0,1-1.41,7.1,14.2,14.2,0,0,1-3.85,5.06,16.62,16.62,0,0,1-5.73,3,23.86,23.86,0,0,1-7,1,14.65,14.65,0,0,1-3.19-.39,34.74,34.74,0,0,1-3.51-1c-1.19-.39-2.33-.8-3.43-1.25s-2.07-.86-2.92-1.26l1.31-12.21a20.93,20.93,0,0,0,5.59,2.3,24.35,24.35,0,0,0,6,.78c.38,0,.83,0,1.37,0a6.28,6.28,0,0,0,1.52-.27,3.17,3.17,0,0,0,1.23-.67,1.59,1.59,0,0,0,.51-1.27,1.4,1.4,0,0,0-.36-1,2.77,2.77,0,0,0-.92-.65,5.57,5.57,0,0,0-1.27-.38c-.48-.09-.94-.16-1.4-.2s-.88-.06-1.27-.06h-1a11.6,11.6,0,0,1-4.64-.89,10.52,10.52,0,0,1-3.59-2.47,11.31,11.31,0,0,1-2.33-3.77A13.24,13.24,0,0,1,98.41,15a13.64,13.64,0,0,1,1.41-6.27A14.57,14.57,0,0,1,103.59,4,16.85,16.85,0,0,1,109,1a19.51,19.51,0,0,1,6.31-1c1,0,2,0,3,.1s2,.2,3.07.37a28.71,28.71,0,0,1,3,.69,17.44,17.44,0,0,1,2.76,1l-1.13,12a37.3,37.3,0,0,0-4.23-1.14,20.87,20.87,0,0,0-4.31-.46l-1,0c-.41,0-.83,0-1.28.09a11.14,11.14,0,0,0-1.35.22,5.54,5.54,0,0,0-1.21.4,2.32,2.32,0,0,0-.86.66,1.54,1.54,0,0,0,.19,2,3.34,3.34,0,0,0,1.19.62,8.11,8.11,0,0,0,1.6.31c.58.06,1.16.09,1.73.1s1.11,0,1.6,0a8.58,8.58,0,0,1,1.22.05,12,12,0,0,1,4.27,1,9.74,9.74,0,0,1,3.21,2.28,9.62,9.62,0,0,1,2,3.39A12.89,12.89,0,0,1,129.49,28.17Z"/><path class="cls-1" d="M166.82,11q0,2.19-.21,4.83c-.14,1.76-.36,3.58-.68,5.46S165.2,25,164.7,27a41.74,41.74,0,0,1-1.88,5.56,33.24,33.24,0,0,1-2.63,5,19.51,19.51,0,0,1-3.44,4.07,15.19,15.19,0,0,1-4.34,2.72,13.7,13.7,0,0,1-5.34,1,14.79,14.79,0,0,1-6-1.11,13.57,13.57,0,0,1-4.35-3,15.91,15.91,0,0,1-3-4.39A27.22,27.22,0,0,1,132,31.5a39.88,39.88,0,0,1-.91-5.72c-.16-2-.25-3.82-.25-5.62a81.84,81.84,0,0,1,.42-8.28c.27-2.76.67-5.51,1.18-8.26l13.88.53q-.8,4.65-1.38,9.36a78.3,78.3,0,0,0-.58,9.44c0,.34,0,.84,0,1.5s.08,1.4.16,2.22.19,1.66.34,2.52a13.76,13.76,0,0,0,.61,2.36,6.38,6.38,0,0,0,.93,1.75,1.64,1.64,0,0,0,1.29.68,2,2,0,0,0,1.55-.81,7.9,7.9,0,0,0,1.2-2.18,23.21,23.21,0,0,0,.9-3.15c.26-1.18.48-2.42.65-3.7s.32-2.57.43-3.86.2-2.48.27-3.59.11-2.08.13-2.93,0-1.48,0-1.9c0-1.54,0-3.08-.07-4.61s-.12-3.06-.22-4.58h13.87C166.7,5.4,166.82,8.16,166.82,11Z"/><path class="cls-1" d="M203.94,15.36a20.11,20.11,0,0,1-.4,4.2,12.21,12.21,0,0,1-3.48,6.36,21.08,21.08,0,0,1-3.29,2.55l7,12.57-13.34,2.61L185.92,31l-3.68.11-.54,12.34H169q.15-6.76.29-13.46t.31-13.46c0-2.28.08-4.53.12-6.77s.11-4.48.23-6.76A40.81,40.81,0,0,1,174,1.75,37.9,37.9,0,0,1,178,1c1.36-.18,2.73-.31,4.12-.38S185,.47,186.45.47a23.08,23.08,0,0,1,6.54.94,16.88,16.88,0,0,1,5.59,2.8,14.12,14.12,0,0,1,3.9,4.66A13.8,13.8,0,0,1,203.94,15.36Zm-13.28.95a7.58,7.58,0,0,0-.34-2.29,5.24,5.24,0,0,0-1-1.79A4.71,4.71,0,0,0,187.65,11a6,6,0,0,0-2.33-.42,8.66,8.66,0,0,0-1.15.07,7.65,7.65,0,0,0-1.1.22l-.48,11h.72a11.12,11.12,0,0,0,2.59-.32,7.89,7.89,0,0,0,2.37-1A5.63,5.63,0,0,0,190,18.86,4.66,4.66,0,0,0,190.66,16.31Z"/><path class="cls-1" d="M241.81,2.37,231,43.65l-14.71.83L202.91,2.79,217,1.48l5.69,24.32,5.52-24.32Z"/><path class="cls-1" d="M258.77,2.19l-3.26,40.39L243,43.23V3Z"/><path class="cls-1" d="M297.08,2.37,286.23,43.65l-14.71.83L258.18,2.79l14.05-1.31,5.69,24.32,5.52-24.32Z"/><path class="cls-1" d="M332.84,23a21.71,21.71,0,0,1-.62,5.2,20.6,20.6,0,0,1-1.8,4.7,19.26,19.26,0,0,1-2.85,4,17.89,17.89,0,0,1-3.76,3.13,18.15,18.15,0,0,1-4.55,2,19.07,19.07,0,0,1-10.31,0,19.25,19.25,0,0,1-4.52-1.91,18.55,18.55,0,0,1-3.81-3,18.23,18.23,0,0,1-2.9-3.86,19.19,19.19,0,0,1-1.87-4.55,18.85,18.85,0,0,1-.67-5.07,20.59,20.59,0,0,1,2.42-9.73,20.17,20.17,0,0,1,2.83-4,19,19,0,0,1,3.72-3.17,18,18,0,0,1,4.46-2.08A17.22,17.22,0,0,1,313.68,4a22.14,22.14,0,0,1,7.85,1.34,16.66,16.66,0,0,1,9.93,9.8A21.25,21.25,0,0,1,332.84,23Zm-13.17.77a8.28,8.28,0,0,0-.37-2.48,6.9,6.9,0,0,0-1.08-2.13,5.46,5.46,0,0,0-1.76-1.51,4.92,4.92,0,0,0-2.42-.58,6,6,0,0,0-2.49.5A5.76,5.76,0,0,0,309.67,19,6.11,6.11,0,0,0,308.46,21a7.49,7.49,0,0,0-.41,2.47A9.3,9.3,0,0,0,308.4,26a7.59,7.59,0,0,0,1.07,2.26,5.74,5.74,0,0,0,1.77,1.63,4.73,4.73,0,0,0,2.44.62,5.55,5.55,0,0,0,4.39-2,6.72,6.72,0,0,0,1.19-2.15A7.92,7.92,0,0,0,319.67,23.78Z"/><path class="cls-1" d="M369.67,15.36a20.8,20.8,0,0,1-.4,4.2A12.89,12.89,0,0,1,368,23a12.54,12.54,0,0,1-2.23,2.91,21.08,21.08,0,0,1-3.29,2.55L369.55,41,356.2,43.65,351.64,31l-3.68.11-.53,12.34H334.68q.15-6.76.28-13.46t.31-13.46c0-2.28.08-4.53.12-6.77s.12-4.48.24-6.76a39.86,39.86,0,0,1,4.09-1.27,37.6,37.6,0,0,1,4-.79c1.35-.18,2.72-.31,4.12-.38s2.82-.11,4.28-.11a23.08,23.08,0,0,1,6.54.94,16.88,16.88,0,0,1,5.59,2.8,14.12,14.12,0,0,1,3.9,4.66A13.69,13.69,0,0,1,369.67,15.36Zm-13.29.95A7.28,7.28,0,0,0,356,14a5.08,5.08,0,0,0-1-1.79A4.71,4.71,0,0,0,353.37,11a6,6,0,0,0-2.33-.42,8.66,8.66,0,0,0-1.15.07,7.93,7.93,0,0,0-1.1.22l-.47,11H349a11.12,11.12,0,0,0,2.59-.32,7.89,7.89,0,0,0,2.37-1,5.53,5.53,0,0,0,1.72-1.75A4.66,4.66,0,0,0,356.38,16.31Z"/></g></g></svg>