<svg xmlns="http://www.w3.org/2000/svg" width="17" height="17" viewBox="0 0 17 17">
  <path id="Exclusión_2" data-name="Exclusión 2" d="M-1706.5,17a8.447,8.447,0,0,1-3.309-.668,8.472,8.472,0,0,1-2.7-1.822,8.471,8.471,0,0,1-1.822-2.7A8.447,8.447,0,0,1-1715,8.5a8.447,8.447,0,0,1,.668-3.309,8.471,8.471,0,0,1,1.822-2.7,8.472,8.472,0,0,1,2.7-1.822A8.447,8.447,0,0,1-1706.5,0a8.448,8.448,0,0,1,3.309.668,8.47,8.47,0,0,1,2.7,1.822,8.473,8.473,0,0,1,1.822,2.7A8.449,8.449,0,0,1-1698,8.5a8.449,8.449,0,0,1-.668,3.309,8.473,8.473,0,0,1-1.822,2.7,8.47,8.47,0,0,1-2.7,1.822A8.448,8.448,0,0,1-1706.5,17Zm-3.078-6.66c-.106,0-.179.067-.289.169l-.08.073-1.387,1.385a.2.2,0,0,0-.011.2.261.261,0,0,0,.214.112h7.623a.449.449,0,0,0,.269-.156l.028-.026,1.494-1.5a.131.131,0,0,0,.017-.142.308.308,0,0,0-.254-.117Zm-1.554-2.8a.258.258,0,0,0-.214.112.2.2,0,0,0,.011.2l1.387,1.385.08.072h0c.11.1.183.169.289.169h7.623a.308.308,0,0,0,.254-.117.131.131,0,0,0-.017-.142l-1.494-1.5-.028-.026a.449.449,0,0,0-.269-.156Zm1.554-2.8c-.106,0-.179.067-.289.169h0l-.079.072-1.387,1.385a.2.2,0,0,0-.011.2.258.258,0,0,0,.214.112h7.623a.449.449,0,0,0,.268-.156l.028-.026,1.494-1.5a.131.131,0,0,0,.017-.142.308.308,0,0,0-.254-.117Z" transform="translate(1715)" fill="#8892ff"/>
</svg>
