<svg xmlns="http://www.w3.org/2000/svg" width="12.307" height="16" viewBox="0 0 12.307 16">
  <path id="Icon_ionic-ios-lock" data-name="Icon ionic-ios-lock" d="M17.519,8.913H16.6v-1.8a3.692,3.692,0,1,0-7.384-.05V8.913H8.288A1.543,1.543,0,0,0,6.75,10.452v7.384a1.543,1.543,0,0,0,1.538,1.538h9.231a1.543,1.543,0,0,0,1.538-1.538V10.452A1.543,1.543,0,0,0,17.519,8.913Zm-4.077,4.8v2.646a.551.551,0,0,1-.512.554.539.539,0,0,1-.565-.538V13.713a1.231,1.231,0,1,1,1.077,0Zm2.077-4.8H10.288V7.067a2.615,2.615,0,0,1,5.231,0Z" transform="translate(-6.75 -3.374)" fill="#7899d4"/>
</svg>
