<svg xmlns="http://www.w3.org/2000/svg" width="16.229" height="14.693" viewBox="0 0 16.229 14.693">
  <path id="Icon_awesome-external-link-square-alt" data-name="Icon awesome-external-link-square-alt" d="M15.229,3.824V15.368a1.574,1.574,0,0,1-1.574,1.574H.574A1.574,1.574,0,0,1-1,15.368V3.824A1.574,1.574,0,0,1,.574,2.25h13.08A1.574,1.574,0,0,1,15.229,3.824Zm-3.654.525H7.9a.788.788,0,0,0-.557,1.344L8.395,6.742,1.982,13.154a.394.394,0,0,0,0,.557L3,14.728a.394.394,0,0,0,.557,0L9.969,8.316l1.049,1.049a.788.788,0,0,0,1.344-.557V5.136A.787.787,0,0,0,11.575,4.349Z" transform="translate(1 -2.25)" fill="#343b86"/>
</svg>
