<svg xmlns="http://www.w3.org/2000/svg" width="16.83" height="14.693" viewBox="0 0 16.83 14.693">
  <path id="Icon_material-pageview" data-name="Icon material-pageview" d="M12.188,10.591a2.3,2.3,0,1,0,2.3,2.3A2.3,2.3,0,0,0,12.188,10.591ZM19.993,6H6.837A1.842,1.842,0,0,0,5,7.837v11.02a1.842,1.842,0,0,0,1.837,1.837H19.993a1.842,1.842,0,0,0,1.837-1.837V7.837A1.842,1.842,0,0,0,19.993,6ZM17.046,19.049l-2.672-2.672a4.072,4.072,0,0,1-2.195.643,4.159,4.159,0,1,1,3.5-1.938l2.672,2.663Z" transform="translate(-5 -6)" fill="#343b86"/>
</svg>
