<svg xmlns="http://www.w3.org/2000/svg" width="37" height="37" viewBox="0 0 37 37">
  <g id="Instagram" transform="translate(-1077 -4908)">
    <g id="Grupo_11" data-name="Grupo 11">
      <g id="Grupo_8" data-name="Grupo 8" transform="translate(50)">
        <circle id="Elipse_14" data-name="Elipse 14" cx="18.5" cy="18.5" r="18.5" transform="translate(1027 4908)" fill="#343b86"/>
      </g>
      <g id="Icon_feather-instagram" data-name="Icon feather-instagram" transform="translate(1088.355 4919.288)">
        <path id="Trazado_2" data-name="Trazado 2" d="M6.839,3h7.679a3.839,3.839,0,0,1,3.839,3.839v7.679a3.839,3.839,0,0,1-3.839,3.839H6.839A3.839,3.839,0,0,1,3,14.518V6.839A3.839,3.839,0,0,1,6.839,3Z" transform="translate(-3 -3)" fill="none" stroke="#fff" stroke-linecap="round" stroke-linejoin="round" stroke-width="1.6"/>
        <path id="Trazado_3" data-name="Trazado 3" d="M18.175,14.556a3.071,3.071,0,1,1-2.588-2.588,3.071,3.071,0,0,1,2.588,2.588Z" transform="translate(-7.424 -7.361)" fill="none" stroke="#fff" stroke-linecap="round" stroke-linejoin="round" stroke-width="1.6"/>
        <path id="Trazado_4" data-name="Trazado 4" d="M26.25,9.75h0" transform="translate(-14.348 -6.295)" fill="none" stroke="#fff" stroke-linecap="round" stroke-linejoin="round" stroke-width="1.6"/>
      </g>
    </g>
  </g>
</svg>
