<svg xmlns="http://www.w3.org/2000/svg" width="37" height="37" viewBox="0 0 37 37">
  <g id="Twitter" transform="translate(-1077 -4908)">
    <g id="Grupo_8" data-name="Grupo 8" transform="translate(50)">
      <circle id="Elipse_14" data-name="Elipse 14" cx="18.5" cy="18.5" r="18.5" transform="translate(1027 4908)" fill="#343b86"/>
    </g>
    <path id="Icon_awesome-twitter" data-name="Icon awesome-twitter" d="M17.882,7.415c.013.177.013.354.013.531A11.542,11.542,0,0,1,6.273,19.568,11.543,11.543,0,0,1,0,17.734a8.45,8.45,0,0,0,.986.051A8.18,8.18,0,0,0,6.058,16.04a4.092,4.092,0,0,1-3.819-2.833,5.151,5.151,0,0,0,.771.063,4.32,4.32,0,0,0,1.075-.139A4.085,4.085,0,0,1,.809,9.122V9.072a4.114,4.114,0,0,0,1.846.518A4.091,4.091,0,0,1,1.391,4.127,11.611,11.611,0,0,0,9.813,8.4a4.611,4.611,0,0,1-.1-.936,4.089,4.089,0,0,1,7.069-2.795,8.042,8.042,0,0,0,2.592-.986,4.074,4.074,0,0,1-1.8,2.251A8.189,8.189,0,0,0,19.93,5.3a8.781,8.781,0,0,1-2.049,2.112Z" transform="translate(1086 4914.619)" fill="#fff"/>
  </g>
</svg>
