<svg xmlns="http://www.w3.org/2000/svg" width="37" height="37" viewBox="0 0 37 37">
  <g id="Youtube" transform="translate(-1077 -4908)">
    <g id="Grupo_11" data-name="Grupo 11">
      <g id="Grupo_8" data-name="Grupo 8" transform="translate(50)">
        <circle id="Elipse_14" data-name="Elipse 14" cx="18.5" cy="18.5" r="18.5" transform="translate(1027 4908)" fill="#343b86"/>
      </g>
      <path id="Icon_awesome-youtube" data-name="Icon awesome-youtube" d="M19.023,6.519A2.306,2.306,0,0,0,17.4,4.886,54.508,54.508,0,0,0,10.228,4.5a54.508,54.508,0,0,0-7.172.386A2.307,2.307,0,0,0,1.434,6.519a24.2,24.2,0,0,0-.384,4.447,24.2,24.2,0,0,0,.384,4.447,2.272,2.272,0,0,0,1.623,1.607,54.508,54.508,0,0,0,7.172.386,54.508,54.508,0,0,0,7.172-.386,2.272,2.272,0,0,0,1.623-1.607,24.2,24.2,0,0,0,.384-4.447,24.2,24.2,0,0,0-.384-4.447ZM8.351,13.7V8.237l4.8,2.729L8.351,13.7Z" transform="translate(1084.95 4915.497)" fill="#fff"/>
    </g>
  </g>
</svg>
